<svg xmlns="http://www.w3.org/2000/svg" xmlns:xlink="http://www.w3.org/1999/xlink" width="52.319" height="50.848" viewBox="0 0 52.319 50.848">
  <defs>
    <filter id="Icon_awesome-star" x="0" y="0" width="52.319" height="50.848" filterUnits="userSpaceOnUse">
      <feOffset dy="3" input="SourceAlpha"/>
      <feGaussianBlur stdDeviation="3" result="blur"/>
      <feFlood flood-opacity="0.161"/>
      <feComposite operator="in" in2="blur"/>
      <feComposite in="SourceGraphic"/>
    </filter>
  </defs>
  <g transform="matrix(1, 0, 0, 1, 0, 0)" filter="url(#Icon_awesome-star)">
    <path id="Icon_awesome-star-2" data-name="Icon awesome-star" d="M16.76,1.142,12.571,9.635,3.2,11a2.054,2.054,0,0,0-1.135,3.5l6.78,6.607-1.6,9.334a2.052,2.052,0,0,0,2.976,2.162L18.6,28.2l8.384,4.407a2.053,2.053,0,0,0,2.976-2.162l-1.6-9.334,6.78-6.607A2.054,2.054,0,0,0,34,11L24.631,9.635,20.442,1.142a2.054,2.054,0,0,0-3.682,0Z" transform="translate(7.56 6)" fill="#ffc507"/>
  </g>
</svg>
