<svg xmlns="http://www.w3.org/2000/svg" width="25" height="auto" viewBox="0 0 36.001 36.062">
                            <g id="bxl-instagram-alt" transform="translate(-4.495 -4.47)">
                                <path id="Path_4152" data-name="Path 4152"
                                    d="M40.381,15.115a13.055,13.055,0,0,0-.837-4.43A9.217,9.217,0,0,0,34.28,5.42a13.207,13.207,0,0,0-4.37-.84c-1.923-.087-2.532-.111-7.416-.111s-5.509,0-7.417.111a13.207,13.207,0,0,0-4.368.84,9.211,9.211,0,0,0-5.265,5.265,13.1,13.1,0,0,0-.837,4.368c-.087,1.925-.112,2.535-.112,7.417s0,5.506.112,7.417a13.178,13.178,0,0,0,.837,4.372,9.217,9.217,0,0,0,5.266,5.262,13.163,13.163,0,0,0,4.368.9c1.925.087,2.535.112,7.417.112s5.509,0,7.417-.112a13.175,13.175,0,0,0,4.37-.837,9.227,9.227,0,0,0,5.265-5.265,13.132,13.132,0,0,0,.837-4.372c.087-1.923.112-2.532.112-7.417s0-5.5-.116-7.416ZM22.483,31.7a9.242,9.242,0,1,1,9.243-9.241A9.239,9.239,0,0,1,22.483,31.7Zm9.611-16.672a2.155,2.155,0,1,1,2.153-2.155A2.153,2.153,0,0,1,32.094,15.031Z"
                                    fill="rgba(255,255,255,0.95)" />
                                <path id="Path_4153" data-name="Path 4153"
                                    d="M25.493,19.467a6,6,0,1,1-6-6,6,6,0,0,1,6,6Z" transform="translate(2.992 2.993)"
                                    fill="rgba(255,255,255,0.95)" />
                            </g>
                        </svg>