<svg xmlns="http://www.w3.org/2000/svg" xmlns:xlink="http://www.w3.org/1999/xlink" width="308.394" height="106.311" viewBox="0 0 308.394 106.311">
  <defs>
    <filter id="Rectangle_1225" x="0" y="0" width="308.394" height="106.311" filterUnits="userSpaceOnUse">
      <feOffset dy="3" input="SourceAlpha"/>
      <feGaussianBlur stdDeviation="3" result="blur"/>
      <feFlood flood-opacity="0.161"/>
      <feComposite operator="in" in2="blur"/>
      <feComposite in="SourceGraphic"/>
    </filter>
  </defs>
  <g id="Group_912" data-name="Group 912" transform="translate(9 6)">
    <g transform="matrix(1, 0, 0, 1, -9, -6)" filter="url(#Rectangle_1225)">
      <rect id="Rectangle_1225-2" data-name="Rectangle 1225" width="290.394" height="88.311" rx="4" transform="translate(9 6)"/>
    </g>
    <g id="Group_1071" data-name="Group 1071" transform="translate(24.043 15.6)">
      <g id="Group_782" data-name="Group 782" transform="translate(0 13.213)">
        <path id="Path_3778" data-name="Path 3778" d="M448,1215.809c-4.711,8.174-1.716,20.58,3.493,28.1,2.6,3.761,5.233,7.137,8.839,7.137.068,0,.136,0,.206,0a10.9,10.9,0,0,0,4.1-1.093,11.239,11.239,0,0,1,4.86-1.151,10.568,10.568,0,0,1,4.625,1.114,9.793,9.793,0,0,0,4.431,1.063c4.061-.075,6.556-3.718,8.756-6.932a30.7,30.7,0,0,0,3.836-7.857l.016-.05a.457.457,0,0,0-.243-.56l-.033-.014a11.642,11.642,0,0,1-7.056-10.662c-.061-6.164,4.707-9.427,5.663-10.019l.045-.028a.456.456,0,0,0,.129-.641,13.176,13.176,0,0,0-10.366-5.629c-.294-.03-.6-.044-.9-.044a18.064,18.064,0,0,0-6.506,1.625,10.444,10.444,0,0,1-3.116.931,10.2,10.2,0,0,1-3.224-.942,15.628,15.628,0,0,0-5.682-1.444l-.144,0A13.93,13.93,0,0,0,448,1215.809Z" transform="translate(-445.653 -1208.538)" fill="#fff"/>
      </g>
      <g id="Group_783" data-name="Group 783" transform="translate(22.167)">
        <path id="Path_3779" data-name="Path 3779" d="M572.067,1140.038a12.72,12.72,0,0,0-8.4,4.309c-1.756,2.032-3.469,5.422-3.018,8.838a.458.458,0,0,0,.418.4c.195.015.393.023.59.023a10.764,10.764,0,0,0,7.928-4.066,12.566,12.566,0,0,0,2.953-9.092A.459.459,0,0,0,572.067,1140.038Z" transform="translate(-560.577 -1140.038)" fill="#fff"/>
      </g>
    </g>
    <g id="Group_1072" data-name="Group 1072" transform="translate(86.801 19.318)">
      <g id="Group_785" data-name="Group 785" transform="translate(4.035 0)">
        <path id="Path_3780" data-name="Path 3780" d="M791.932,1163.606h5.461a7.993,7.993,0,0,1,3.815.887,6.486,6.486,0,0,1,2.593,2.454,7.3,7.3,0,0,1,0,7.117,6.486,6.486,0,0,1-2.593,2.454,7.99,7.99,0,0,1-3.815.887h-5.461Zm5.382,12.893a7.2,7.2,0,0,0,3.371-.759,5.428,5.428,0,0,0,2.248-2.12,6.547,6.547,0,0,0,0-6.23,5.431,5.431,0,0,0-2.248-2.119,7.2,7.2,0,0,0-3.371-.759h-4.377V1176.5Z" transform="translate(-791.932 -1162.778)" fill="#fff"/>
        <path id="Path_3781" data-name="Path 3781" d="M871.409,1191.169a4.823,4.823,0,0,1-1.843-1.863,5.736,5.736,0,0,1,0-5.382,4.826,4.826,0,0,1,1.843-1.863,5.5,5.5,0,0,1,5.264,0,4.831,4.831,0,0,1,1.843,1.863,5.736,5.736,0,0,1,0,5.382,4.827,4.827,0,0,1-1.843,1.863,5.5,5.5,0,0,1-5.264,0Zm4.751-.769a3.963,3.963,0,0,0,1.479-1.538,4.929,4.929,0,0,0,0-4.495,3.97,3.97,0,0,0-1.479-1.538,4.346,4.346,0,0,0-4.239,0,3.966,3.966,0,0,0-1.479,1.538,4.931,4.931,0,0,0,0,4.495,3.96,3.96,0,0,0,1.479,1.538,4.345,4.345,0,0,0,4.239,0Z" transform="translate(-854.05 -1177.132)" fill="#fff"/>
        <path id="Path_3782" data-name="Path 3782" d="M943.345,1181.8l-3.9,10.291h-.927l-3.47-8.931-3.49,8.931h-.907l-3.9-10.291h.946l3.43,9.187,3.509-9.187h.848l3.49,9.167,3.47-9.167Z" transform="translate(-900.742 -1177.462)" fill="#fff"/>
        <path id="Path_3783" data-name="Path 3783" d="M1032.745,1182.514a4.377,4.377,0,0,1,1.124,3.233v6.013h-.986v-5.934a3.654,3.654,0,0,0-.877-2.642,3.257,3.257,0,0,0-2.454-.907,3.785,3.785,0,0,0-2.859,1.084,4.028,4.028,0,0,0-1.045,2.918v5.481h-.986v-10.291h.947v2.228a3.913,3.913,0,0,1,1.587-1.7,4.889,4.889,0,0,1,2.494-.611A4.13,4.13,0,0,1,1032.745,1182.514Z" transform="translate(-979.772 -1177.132)" fill="#fff"/>
        <path id="Path_3784" data-name="Path 3784" d="M1093.449,1159.313h.986v14.628h-.986Z" transform="translate(-1035.291 -1159.313)" fill="#fff"/>
        <path id="Path_3785" data-name="Path 3785" d="M1116.812,1191.169a4.823,4.823,0,0,1-1.843-1.863,5.736,5.736,0,0,1,0-5.382,4.826,4.826,0,0,1,1.843-1.863,5.5,5.5,0,0,1,5.264,0,4.829,4.829,0,0,1,1.843,1.863,5.736,5.736,0,0,1,0,5.382,4.826,4.826,0,0,1-1.843,1.863,5.5,5.5,0,0,1-5.264,0Zm4.751-.769a3.965,3.965,0,0,0,1.479-1.538,4.929,4.929,0,0,0,0-4.495,3.971,3.971,0,0,0-1.479-1.538,4.346,4.346,0,0,0-4.239,0,3.966,3.966,0,0,0-1.479,1.538,4.929,4.929,0,0,0,0,4.495,3.959,3.959,0,0,0,1.479,1.538,4.345,4.345,0,0,0,4.239,0Z" transform="translate(-1052.118 -1177.132)" fill="#fff"/>
        <path id="Path_3786" data-name="Path 3786" d="M1185.82,1182.366a3.777,3.777,0,0,1,1.025,2.868v6.526h-.946v-1.834a3.423,3.423,0,0,1-1.439,1.41,4.771,4.771,0,0,1-2.267.5,4.178,4.178,0,0,1-2.711-.808,2.8,2.8,0,0,1-.079-4.209,4.4,4.4,0,0,1,2.927-.8h3.529v-.828a2.9,2.9,0,0,0-.779-2.188,3.16,3.16,0,0,0-2.277-.749,5.49,5.49,0,0,0-1.961.355,4.925,4.925,0,0,0-1.587.946l-.493-.71a5.478,5.478,0,0,1,1.853-1.075,6.734,6.734,0,0,1,2.267-.384A4.1,4.1,0,0,1,1185.82,1182.366Zm-1.311,8.073a3.6,3.6,0,0,0,1.35-1.715v-1.932h-3.509a3.494,3.494,0,0,0-2.2.552,1.849,1.849,0,0,0-.68,1.518,1.9,1.9,0,0,0,.749,1.587,3.369,3.369,0,0,0,2.11.582A3.869,3.869,0,0,0,1184.509,1190.439Z" transform="translate(-1103.925 -1177.132)" fill="#fff"/>
        <path id="Path_3787" data-name="Path 3787" d="M1247.423,1159.313v14.628h-.966v-2.425a4.42,4.42,0,0,1-1.715,1.853,4.838,4.838,0,0,1-2.5.651,5.116,5.116,0,0,1-2.6-.671,4.794,4.794,0,0,1-1.824-1.853,5.443,5.443,0,0,1-.661-2.7,5.5,5.5,0,0,1,.661-2.711,4.712,4.712,0,0,1,1.824-1.853,5.178,5.178,0,0,1,2.6-.66,4.751,4.751,0,0,1,2.474.65,4.633,4.633,0,0,1,1.725,1.814v-6.723Zm-3.006,13.268a3.963,3.963,0,0,0,1.479-1.538,4.93,4.93,0,0,0,0-4.495,3.967,3.967,0,0,0-1.479-1.538,4.344,4.344,0,0,0-4.239,0,3.964,3.964,0,0,0-1.479,1.538,4.928,4.928,0,0,0,0,4.495,3.96,3.96,0,0,0,1.479,1.538,4.344,4.344,0,0,0,4.239,0Z" transform="translate(-1151.275 -1159.313)" fill="#fff"/>
        <path id="Path_3788" data-name="Path 3788" d="M1334.924,1191.169a4.822,4.822,0,0,1-1.843-1.863,5.734,5.734,0,0,1,0-5.382,4.826,4.826,0,0,1,1.843-1.863,5.5,5.5,0,0,1,5.264,0,4.831,4.831,0,0,1,1.843,1.863,5.738,5.738,0,0,1,0,5.382,4.827,4.827,0,0,1-1.843,1.863,5.5,5.5,0,0,1-5.264,0Zm4.751-.769a3.964,3.964,0,0,0,1.479-1.538,4.931,4.931,0,0,0,0-4.495,3.971,3.971,0,0,0-1.479-1.538,4.346,4.346,0,0,0-4.239,0,3.966,3.966,0,0,0-1.479,1.538,4.929,4.929,0,0,0,0,4.495,3.959,3.959,0,0,0,1.479,1.538,4.345,4.345,0,0,0,4.239,0Z" transform="translate(-1228.159 -1177.132)" fill="#fff"/>
        <path id="Path_3789" data-name="Path 3789" d="M1409.689,1182.514a4.376,4.376,0,0,1,1.124,3.233v6.013h-.986v-5.934a3.654,3.654,0,0,0-.877-2.642,3.257,3.257,0,0,0-2.455-.907,3.786,3.786,0,0,0-2.859,1.084,4.027,4.027,0,0,0-1.045,2.918v5.481h-.986v-10.291h.946v2.228a3.915,3.915,0,0,1,1.587-1.7,4.889,4.889,0,0,1,2.494-.611A4.129,4.129,0,0,1,1409.689,1182.514Z" transform="translate(-1284.008 -1177.132)" fill="#fff"/>
        <path id="Path_3790" data-name="Path 3790" d="M1494.671,1182.035a2.475,2.475,0,0,1-.936.542,3.688,3.688,0,0,1-1.173.187,2.777,2.777,0,0,1-2.07-.74,2.807,2.807,0,0,1-.729-2.06v-6.723h-1.893v-.848h1.893v-2.248h.986v2.248h3.273v.848h-3.273v6.624a2.174,2.174,0,0,0,.483,1.528,1.852,1.852,0,0,0,1.429.522,2.288,2.288,0,0,0,1.6-.572Z" transform="translate(-1353.633 -1168.057)" fill="#fff"/>
        <path id="Path_3791" data-name="Path 3791" d="M1545.422,1164.7a4.376,4.376,0,0,1,1.124,3.233v6.013h-.986v-5.934a3.654,3.654,0,0,0-.877-2.642,3.258,3.258,0,0,0-2.455-.907,3.784,3.784,0,0,0-2.859,1.084,4.027,4.027,0,0,0-1.045,2.918v5.481h-.986v-14.628h.986v6.486a3.775,3.775,0,0,1,1.577-1.646,4.991,4.991,0,0,1,2.465-.582A4.128,4.128,0,0,1,1545.422,1164.7Z" transform="translate(-1393.56 -1159.313)" fill="#fff"/>
        <path id="Path_3792" data-name="Path 3792" d="M1610.218,1186.851h-8.852a4.3,4.3,0,0,0,.611,2.139,3.91,3.91,0,0,0,1.547,1.449,4.656,4.656,0,0,0,2.2.512,4.709,4.709,0,0,0,1.863-.365,3.631,3.631,0,0,0,1.429-1.075l.572.651a4.387,4.387,0,0,1-1.686,1.242,5.869,5.869,0,0,1-4.938-.237,4.859,4.859,0,0,1-1.883-1.853,5.321,5.321,0,0,1-.68-2.7,5.6,5.6,0,0,1,.641-2.691,4.723,4.723,0,0,1,1.765-1.863,5.1,5.1,0,0,1,5.037-.01,4.7,4.7,0,0,1,1.755,1.843,5.541,5.541,0,0,1,.641,2.682Zm-6.841-4.11a3.678,3.678,0,0,0-1.39,1.36,4.428,4.428,0,0,0-.6,1.981h7.886a4.137,4.137,0,0,0-.592-1.971,3.83,3.83,0,0,0-3.352-1.853A3.945,3.945,0,0,0,1603.377,1182.74Z" transform="translate(-1444.458 -1177.132)" fill="#fff"/>
      </g>
      <g id="Group_786" data-name="Group 786" transform="translate(0 26.674)">
        <path id="Path_3793" data-name="Path 3793" d="M789.643,1317.476H777.851l-2.325,5.458h-4.514l10.613-23.583h4.312l10.646,23.583H792Zm-1.449-3.436-4.447-10.309-4.414,10.309Z" transform="translate(-771.012 -1299.013)" fill="#fff"/>
        <path id="Path_3794" data-name="Path 3794" d="M931.7,1328.442a8.271,8.271,0,0,1,3.251,3.234,10.467,10.467,0,0,1,0,9.652,8.233,8.233,0,0,1-3.251,3.251,9.55,9.55,0,0,1-4.7,1.146,7.264,7.264,0,0,1-5.761-2.426v8.726h-4.211V1327.5h4.009v2.358a6.512,6.512,0,0,1,2.577-1.921,8.711,8.711,0,0,1,3.386-.64A9.555,9.555,0,0,1,931.7,1328.442Zm-1.348,12.129a6.292,6.292,0,0,0,0-8.153,5.092,5.092,0,0,0-3.824-1.55,5.421,5.421,0,0,0-2.729.691,4.993,4.993,0,0,0-1.92,1.971,6.565,6.565,0,0,0,0,5.929,4.985,4.985,0,0,0,1.92,1.971,5.415,5.415,0,0,0,2.729.691A5.09,5.09,0,0,0,930.357,1340.571Z" transform="translate(-888.867 -1321.569)" fill="#fff"/>
        <path id="Path_3795" data-name="Path 3795" d="M1051.525,1328.442a8.268,8.268,0,0,1,3.251,3.234,10.466,10.466,0,0,1,0,9.652,8.231,8.231,0,0,1-3.251,3.251,9.55,9.55,0,0,1-4.7,1.146,7.262,7.262,0,0,1-5.761-2.426v8.726h-4.212V1327.5h4.009v2.358a6.511,6.511,0,0,1,2.577-1.921,8.71,8.71,0,0,1,3.386-.64A9.556,9.556,0,0,1,1051.525,1328.442Zm-1.348,12.129a6.292,6.292,0,0,0,0-8.153,5.092,5.092,0,0,0-3.824-1.55,5.421,5.421,0,0,0-2.729.691,4.994,4.994,0,0,0-1.92,1.971,6.565,6.565,0,0,0,0,5.929,4.987,4.987,0,0,0,1.92,1.971,5.415,5.415,0,0,0,2.729.691A5.091,5.091,0,0,0,1050.177,1340.571Z" transform="translate(-985.575 -1321.569)" fill="#fff"/>
        <path id="Path_3796" data-name="Path 3796" d="M1200.695,1321.086a10.987,10.987,0,0,1-4.026-2.055l1.516-3.4a11.924,11.924,0,0,0,3.554,1.87,12.912,12.912,0,0,0,4.228.724,7.3,7.3,0,0,0,3.925-.842,2.552,2.552,0,0,0,1.3-2.224,2.153,2.153,0,0,0-.724-1.668,5.1,5.1,0,0,0-1.836-1.028q-1.112-.37-3.032-.842a35.254,35.254,0,0,1-4.363-1.28,7.178,7.178,0,0,1-2.864-2,5.4,5.4,0,0,1-1.2-3.689,6.3,6.3,0,0,1,1.061-3.554,7.182,7.182,0,0,1,3.2-2.544,12.967,12.967,0,0,1,5.239-.944,16.947,16.947,0,0,1,4.245.539,11.738,11.738,0,0,1,3.6,1.55l-1.381,3.4a13.646,13.646,0,0,0-3.234-1.381,12.112,12.112,0,0,0-3.268-.472,6.826,6.826,0,0,0-3.858.876,2.7,2.7,0,0,0-1.263,2.325,2.1,2.1,0,0,0,.724,1.651,5.222,5.222,0,0,0,1.836,1.011q1.112.371,3.032.842a31.87,31.87,0,0,1,4.312,1.263,7.393,7.393,0,0,1,2.881,2,5.284,5.284,0,0,1,1.2,3.639,6.213,6.213,0,0,1-1.061,3.538,7.217,7.217,0,0,1-3.218,2.527,13.1,13.1,0,0,1-5.256.943A17.993,17.993,0,0,1,1200.695,1321.086Z" transform="translate(-1114.566 -1297.603)" fill="#fff"/>
        <path id="Path_3797" data-name="Path 3797" d="M1315.549,1328.723a4.958,4.958,0,0,1-1.8.91,8.119,8.119,0,0,1-2.241.3,6.356,6.356,0,0,1-4.582-1.55,5.964,5.964,0,0,1-1.617-4.515v-8.659h-2.965v-3.369h2.965v-4.11h4.211v4.11h4.818v3.369h-4.818v8.558a2.844,2.844,0,0,0,.64,2,2.4,2.4,0,0,0,1.853.691,3.7,3.7,0,0,0,2.358-.741Z" transform="translate(-1199.856 -1305.78)" fill="#fff"/>
        <path id="Path_3798" data-name="Path 3798" d="M1382.624,1344.547a8.593,8.593,0,0,1-3.42-3.285,9.824,9.824,0,0,1,0-9.518,8.631,8.631,0,0,1,3.42-3.268,10.919,10.919,0,0,1,9.871,0,8.641,8.641,0,0,1,3.42,3.268,9.827,9.827,0,0,1,0,9.518,8.6,8.6,0,0,1-3.42,3.285,10.919,10.919,0,0,1-9.871,0Zm8.76-3.976a6.239,6.239,0,0,0,0-8.153,5.147,5.147,0,0,0-3.841-1.55,5.091,5.091,0,0,0-3.824,1.55,6.292,6.292,0,0,0,0,8.153,5.089,5.089,0,0,0,3.824,1.55A5.146,5.146,0,0,0,1391.383,1340.571Z" transform="translate(-1260.9 -1321.569)" fill="#fff"/>
        <path id="Path_3799" data-name="Path 3799" d="M1508.729,1327.3v4.009a5.342,5.342,0,0,0-.977-.1,5.087,5.087,0,0,0-3.841,1.432,5.709,5.709,0,0,0-1.381,4.127v8.726h-4.211V1327.5h4.009v2.628Q1504.146,1327.3,1508.729,1327.3Z" transform="translate(-1358.031 -1321.569)" fill="#fff"/>
        <path id="Path_3800" data-name="Path 3800" d="M1580.575,1337.842h-14.116a4.891,4.891,0,0,0,1.937,3.15,6.351,6.351,0,0,0,3.892,1.162,6.557,6.557,0,0,0,4.885-1.954l2.257,2.594a7.606,7.606,0,0,1-3.066,2.19,12.148,12.148,0,0,1-9.4-.438,8.494,8.494,0,0,1-3.487-3.285,9.274,9.274,0,0,1-1.229-4.767,9.412,9.412,0,0,1,1.2-4.734,8.483,8.483,0,0,1,3.318-3.285,9.683,9.683,0,0,1,4.784-1.179,9.439,9.439,0,0,1,4.7,1.162,8.237,8.237,0,0,1,3.234,3.268,9.912,9.912,0,0,1,1.162,4.869Q1580.642,1337.034,1580.575,1337.842Zm-12.449-5.98a5.031,5.031,0,0,0-1.7,3.184h10.208a4.969,4.969,0,0,0-1.651-3.167,5.021,5.021,0,0,0-3.437-1.213A5.082,5.082,0,0,0,1568.126,1331.862Z" transform="translate(-1409.629 -1321.569)" fill="#fff"/>
      </g>
    </g>
  </g>
</svg>
