<svg xmlns="http://www.w3.org/2000/svg" xmlns:xlink="http://www.w3.org/1999/xlink" width="308.396" height="106.312" viewBox="0 0 308.396 106.312">
  <defs>
    <filter id="Rectangle_586" x="0" y="0" width="308.396" height="106.312" filterUnits="userSpaceOnUse">
      <feOffset dy="3" input="SourceAlpha"/>
      <feGaussianBlur stdDeviation="3" result="blur"/>
      <feFlood flood-opacity="0.161"/>
      <feComposite operator="in" in2="blur"/>
      <feComposite in="SourceGraphic"/>
    </filter>
  </defs>
  <g id="Group_913" data-name="Group 913" transform="translate(9 6)">
    <g id="Group_790" data-name="Group 790" transform="translate(0)">
      <g id="Group_789" data-name="Group 789" transform="translate(0 0)">
        <g transform="matrix(1, 0, 0, 1, -9, -6)" filter="url(#Rectangle_586)">
          <rect id="Rectangle_586-2" data-name="Rectangle 586" width="290.396" height="88.312" rx="4" transform="translate(9 6)"/>
        </g>
      </g>
    </g>
    <g id="Group_802" data-name="Group 802" transform="translate(77.785 40.702)">
      <g id="Group_801" data-name="Group 801" transform="translate(0 0)">
        <g id="Group_791" data-name="Group 791" transform="translate(0 1.054)">
          <path id="Path_3801" data-name="Path 3801" d="M741.653,711.065h4.05v9.186a12.871,12.871,0,0,1-4.149,2.173,15.922,15.922,0,0,1-4.873.757,13.142,13.142,0,0,1-6.355-1.531,11.371,11.371,0,0,1-4.445-4.231,12.307,12.307,0,0,1,0-12.183,11.345,11.345,0,0,1,4.462-4.231,13.306,13.306,0,0,1,6.4-1.531,13.988,13.988,0,0,1,5.268.955,10.345,10.345,0,0,1,3.984,2.8l-2.7,2.634a8.661,8.661,0,0,0-6.355-2.634,8.98,8.98,0,0,0-4.33,1.021,7.445,7.445,0,0,0-2.963,2.864,8.243,8.243,0,0,0-1.07,4.215,8.111,8.111,0,0,0,1.07,4.149,7.667,7.667,0,0,0,2.963,2.9,8.681,8.681,0,0,0,4.3,1.054,9.275,9.275,0,0,0,4.741-1.185Z" transform="translate(-724.268 -699.475)" fill="#fff"/>
        </g>
        <g id="Group_792" data-name="Group 792" transform="translate(25.221 6.651)">
          <path id="Path_3802" data-name="Path 3802" d="M859.566,745.352a8.4,8.4,0,0,1-3.342-3.21,9.6,9.6,0,0,1,0-9.3,8.436,8.436,0,0,1,3.342-3.194,10.67,10.67,0,0,1,9.647,0,8.443,8.443,0,0,1,3.342,3.194,9.6,9.6,0,0,1,0,9.3,8.4,8.4,0,0,1-3.342,3.21,10.673,10.673,0,0,1-9.647,0Zm8.561-3.885a6.1,6.1,0,0,0,0-7.968,5.029,5.029,0,0,0-3.754-1.515,4.974,4.974,0,0,0-3.737,1.515,6.148,6.148,0,0,0,0,7.968,4.973,4.973,0,0,0,3.737,1.514A5.028,5.028,0,0,0,868.127,741.467Z" transform="translate(-855.022 -728.494)" fill="#fff"/>
        </g>
        <g id="Group_793" data-name="Group 793" transform="translate(46.458 6.651)">
          <path id="Path_3803" data-name="Path 3803" d="M969.666,745.352a8.4,8.4,0,0,1-3.342-3.21,9.6,9.6,0,0,1,0-9.3,8.438,8.438,0,0,1,3.342-3.194,10.67,10.67,0,0,1,9.647,0,8.443,8.443,0,0,1,3.342,3.194,9.6,9.6,0,0,1,0,9.3,8.4,8.4,0,0,1-3.342,3.21,10.673,10.673,0,0,1-9.647,0Zm8.561-3.885a6.1,6.1,0,0,0,0-7.968,5.029,5.029,0,0,0-3.754-1.515,4.974,4.974,0,0,0-3.737,1.515,6.149,6.149,0,0,0,0,7.968,4.973,4.973,0,0,0,3.737,1.514A5.028,5.028,0,0,0,978.227,741.467Z" transform="translate(-965.122 -728.494)" fill="#fff"/>
        </g>
        <g id="Group_794" data-name="Group 794" transform="translate(67.694 6.651)">
          <path id="Path_3804" data-name="Path 3804" d="M1094.122,728.692v14.916q0,9.285-9.483,9.285a17.585,17.585,0,0,1-4.807-.642,10.209,10.209,0,0,1-3.754-1.86l1.844-3.1a8.818,8.818,0,0,0,2.914,1.531,11.438,11.438,0,0,0,3.572.576,5.9,5.9,0,0,0,4.248-1.317,5.385,5.385,0,0,0,1.35-4.017v-.922a6.766,6.766,0,0,1-2.568,1.745,9.054,9.054,0,0,1-3.325.593,9.538,9.538,0,0,1-4.527-1.07,8.029,8.029,0,0,1-3.194-3.013,9,9,0,0,1,0-8.873,7.958,7.958,0,0,1,3.194-2.98,9.663,9.663,0,0,1,4.527-1.054,9.288,9.288,0,0,1,3.473.625,6.412,6.412,0,0,1,2.618,1.91v-2.338Zm-5.548,11.9a4.749,4.749,0,0,0,1.5-3.638,4.659,4.659,0,0,0-1.5-3.589,6.058,6.058,0,0,0-7.705,0,4.66,4.66,0,0,0-1.5,3.589,4.749,4.749,0,0,0,1.5,3.638,6,6,0,0,0,7.705,0Z" transform="translate(-1075.222 -728.494)" fill="#fff"/>
        </g>
        <g id="Group_795" data-name="Group 795" transform="translate(91.993)">
          <path id="Path_3805" data-name="Path 3805" d="M1201.2,694.012h4.116v24.431H1201.2Z" transform="translate(-1201.196 -694.012)" fill="#fff"/>
        </g>
        <g id="Group_796" data-name="Group 796" transform="translate(100.059 6.651)">
          <path id="Path_3806" data-name="Path 3806" d="M1260.927,738.8h-13.8a4.781,4.781,0,0,0,1.893,3.079,6.207,6.207,0,0,0,3.8,1.136,6.408,6.408,0,0,0,4.774-1.91l2.206,2.535a7.43,7.43,0,0,1-3,2.14,11.875,11.875,0,0,1-9.186-.428,8.3,8.3,0,0,1-3.408-3.21,9.06,9.06,0,0,1-1.2-4.659,9.2,9.2,0,0,1,1.169-4.626,8.292,8.292,0,0,1,3.244-3.21,9.461,9.461,0,0,1,4.675-1.153,9.227,9.227,0,0,1,4.593,1.136,8.049,8.049,0,0,1,3.161,3.194,9.688,9.688,0,0,1,1.136,4.758Q1260.993,738.01,1260.927,738.8Zm-12.166-5.844a4.917,4.917,0,0,0-1.663,3.111h9.977a4.858,4.858,0,0,0-1.613-3.095,4.908,4.908,0,0,0-3.359-1.185A4.966,4.966,0,0,0,1248.761,732.955Z" transform="translate(-1243.015 -728.494)" fill="#fff"/>
        </g>
        <g id="Group_797" data-name="Group 797" transform="translate(131.47 1.383)">
          <path id="Path_3807" data-name="Path 3807" d="M1420.562,702.17A7.589,7.589,0,0,1,1423.97,705a8.653,8.653,0,0,1,0,8.742,7.549,7.549,0,0,1-3.408,2.848,12.761,12.761,0,0,1-5.219.988h-5.2v6.651h-4.28V701.182h9.483A12.763,12.763,0,0,1,1420.562,702.17Zm-1.169,10.6a4.694,4.694,0,0,0,0-6.783,6.574,6.574,0,0,0-4.247-1.185h-5v9.154h5A6.577,6.577,0,0,0,1419.393,712.772Z" transform="translate(-1405.861 -701.182)" fill="#fff"/>
        </g>
        <g id="Group_798" data-name="Group 798" transform="translate(154.979)">
          <path id="Path_3808" data-name="Path 3808" d="M1527.74,694.012h4.116v24.431h-4.116Z" transform="translate(-1527.74 -694.012)" fill="#fff"/>
        </g>
        <g id="Group_799" data-name="Group 799" transform="translate(163.243 6.651)">
          <path id="Path_3809" data-name="Path 3809" d="M1584.5,730.354q2.057,1.86,2.058,5.614v10.306h-3.885v-2.14a4.787,4.787,0,0,1-2.156,1.761,8.434,8.434,0,0,1-3.375.609,8.273,8.273,0,0,1-3.457-.675,5.335,5.335,0,0,1-2.289-1.877,4.76,4.76,0,0,1-.807-2.717,4.655,4.655,0,0,1,1.761-3.8q1.761-1.432,5.548-1.432h4.544v-.263a3.6,3.6,0,0,0-1.1-2.832,4.772,4.772,0,0,0-3.276-.988,9.456,9.456,0,0,0-2.914.461,7.167,7.167,0,0,0-2.42,1.284l-1.614-3a10,10,0,0,1,3.325-1.613,14.8,14.8,0,0,1,4.116-.56A8.575,8.575,0,0,1,1584.5,730.354Zm-3.753,12.446a3.852,3.852,0,0,0,1.7-2.025v-2.041h-4.248q-3.556,0-3.556,2.338a2.1,2.1,0,0,0,.889,1.778,4.074,4.074,0,0,0,2.47.659A5.312,5.312,0,0,0,1580.742,742.8Z" transform="translate(-1570.584 -728.494)" fill="#fff"/>
        </g>
        <g id="Group_800" data-name="Group 800" transform="translate(180.891 6.849)">
          <path id="Path_3810" data-name="Path 3810" d="M1681.8,729.518l-8.231,19a8.851,8.851,0,0,1-2.8,4.033,6.706,6.706,0,0,1-3.984,1.169,8.183,8.183,0,0,1-2.6-.428,5.759,5.759,0,0,1-2.107-1.185l1.646-3.029a4.489,4.489,0,0,0,1.4.889,4.29,4.29,0,0,0,1.63.329,2.806,2.806,0,0,0,1.794-.56,4.952,4.952,0,0,0,1.3-1.877l.3-.691-7.672-17.648h4.281l5.531,13.006,5.565-13.006Z" transform="translate(-1662.079 -729.518)" fill="#fff"/>
        </g>
      </g>
    </g>
    <g id="Group_811" data-name="Group 811" transform="translate(16.266 14.858)">
      <g id="Group_804" data-name="Group 804" transform="translate(33.446 21.786)">
        <g id="Group_803" data-name="Group 803">
          <path id="Path_3811" data-name="Path 3811" d="M598.889,679.359l-11.064-6.385-9.1,8.8,8.316,8.039,11.847-6.839a2.086,2.086,0,0,0,0-3.612Z" transform="translate(-578.726 -672.974)" fill="#ffd109"/>
        </g>
      </g>
      <g id="Group_806" data-name="Group 806" transform="translate(1.809 0)">
        <g id="Group_805" data-name="Group 805">
          <path id="Path_3812" data-name="Path 3812" d="M453.568,580.727,441.393,573.7,414.71,560.025l30.137,29.133Z" transform="translate(-414.71 -560.025)" fill="#06ef79"/>
        </g>
      </g>
      <g id="Group_808" data-name="Group 808" transform="translate(2.252 32.033)">
        <g id="Group_807" data-name="Group 807">
          <path id="Path_3813" data-name="Path 3813" d="M417.006,754.8l26.285-14.48,11.347-6.55L446.7,726.1Z" transform="translate(-417.006 -726.095)" fill="#f93646"/>
        </g>
      </g>
      <g id="Group_810" data-name="Group 810" transform="translate(0 1.179)">
        <g id="Group_809" data-name="Group 809">
          <path id="Path_3814" data-name="Path 3814" d="M405.36,566.136l-.028,58.835,30.446-29.432Z" transform="translate(-405.332 -566.136)" fill="#05d5fb"/>
        </g>
      </g>
    </g>
    <g id="Group_812" data-name="Group 812" transform="translate(78.559 14.949)">
      <path id="Path_3815" data-name="Path 3815" d="M734.871,574.841a5.689,5.689,0,0,1-2.6-.608,6.874,6.874,0,0,1-2.1-1.633,7.72,7.72,0,0,1-1.394-2.31,7.29,7.29,0,0,1-.5-2.659,7.5,7.5,0,0,1,1.882-5,6.448,6.448,0,0,1,2.092-1.564,6.068,6.068,0,0,1,2.619-.568,6.163,6.163,0,0,1,3.386.856,5.511,5.511,0,0,1,2.012,2.231l-1.374.956a4.141,4.141,0,0,0-1.693-1.832,4.8,4.8,0,0,0-2.37-.6,4.15,4.15,0,0,0-1.952.458,4.68,4.68,0,0,0-1.5,1.245,5.7,5.7,0,0,0-.956,1.783,6.564,6.564,0,0,0-.329,2.071,6.166,6.166,0,0,0,.369,2.141,5.509,5.509,0,0,0,1.046,1.773,5.028,5.028,0,0,0,1.574,1.205,4.34,4.34,0,0,0,1.932.438,4.634,4.634,0,0,0,2.31-.617,6.992,6.992,0,0,0,2.072-1.892v1.853A5.75,5.75,0,0,1,734.871,574.841Zm4.3-5.8h-3.047v-1.354h4.561v7.051h-1.514Z" transform="translate(-728.278 -560.501)" fill="#fff"/>
      <path id="Path_3816" data-name="Path 3816" d="M816.353,573.565v1.593h-9.6V561.017h9.421v1.594h-7.628v4.581h6.632v1.494h-6.632v4.88Z" transform="translate(-791.616 -560.918)" fill="#fff"/>
      <path id="Path_3817" data-name="Path 3817" d="M873.756,562.611h-4.879v12.548h-1.792V562.611H862.2v-1.594h11.552Z" transform="translate(-836.371 -560.918)" fill="#fff"/>
      <path id="Path_3818" data-name="Path 3818" d="M955.653,575.158V561.017h1.792v14.141Z" transform="translate(-911.796 -560.918)" fill="#fff"/>
      <path id="Path_3819" data-name="Path 3819" d="M984.292,564.323v10.835H982.5V561.017h1.514l8.644,11.054V561.037h1.792v14.121h-1.633Z" transform="translate(-933.463 -560.918)" fill="#fff"/>
      <path id="Path_3820" data-name="Path 3820" d="M1090.034,574.841a6.056,6.056,0,0,1-2.709-.6,6.589,6.589,0,0,1-2.1-1.623,7.613,7.613,0,0,1-1.842-4.949,7.274,7.274,0,0,1,.508-2.7,7.528,7.528,0,0,1,1.414-2.291,6.836,6.836,0,0,1,2.121-1.593,6.007,6.007,0,0,1,2.649-.588,5.894,5.894,0,0,1,2.709.617,6.671,6.671,0,0,1,2.091,1.653,7.79,7.79,0,0,1,1.355,2.31,7.44,7.44,0,0,1-1.425,7.6,6.7,6.7,0,0,1-2.121,1.583A6.087,6.087,0,0,1,1090.034,574.841Zm-4.84-7.17a6.315,6.315,0,0,0,.349,2.081,5.74,5.74,0,0,0,.986,1.782,4.771,4.771,0,0,0,1.534,1.235,4.307,4.307,0,0,0,1.991.458,4.247,4.247,0,0,0,2.032-.478,4.778,4.778,0,0,0,1.523-1.275,5.816,5.816,0,0,0,.956-1.793,6.381,6.381,0,0,0,.329-2.012,6.24,6.24,0,0,0-.349-2.071,5.8,5.8,0,0,0-1-1.783,4.746,4.746,0,0,0-1.534-1.235,4.583,4.583,0,0,0-3.994.02,4.679,4.679,0,0,0-1.523,1.265,6.015,6.015,0,0,0-.966,1.783A6.171,6.171,0,0,0,1085.194,567.671Z" transform="translate(-1014.887 -560.501)" fill="#fff"/>
      <path id="Path_3821" data-name="Path 3821" d="M1167.161,564.323v10.835h-1.792V561.017h1.513l8.644,11.054V561.037h1.792v14.121h-1.633Z" transform="translate(-1081.06 -560.918)" fill="#fff"/>
    </g>
  </g>
</svg>
